<svg xmlns="http://www.w3.org/2000/svg" width="1600" height="900" viewBox="0 0 1600 900" fill="none" role="img" aria-label="Ilustração: A Última Ceia (conceitual)">
  <defs>
    <linearGradient id="bg" x1="0" y1="0" x2="1600" y2="900" gradientUnits="userSpaceOnUse">
      <stop stop-color="#1E3A8A"/>
      <stop offset="1" stop-color="#0B1F4B"/>
    </linearGradient>
    <radialGradient id="halo" cx="0" cy="0" r="1" gradientUnits="userSpaceOnUse" gradientTransform="translate(800 310) rotate(90) scale(380 520)">
      <stop stop-color="#FFFFFF" stop-opacity="0.18"/>
      <stop offset="1" stop-color="#FFFFFF" stop-opacity="0"/>
    </radialGradient>
    <linearGradient id="table" x1="260" y1="595" x2="1340" y2="710" gradientUnits="userSpaceOnUse">
      <stop stop-color="#FFFFFF" stop-opacity="0.10"/>
      <stop offset="1" stop-color="#FFFFFF" stop-opacity="0.04"/>
    </linearGradient>
    <filter id="soft" x="-20%" y="-20%" width="140%" height="140%" color-interpolation-filters="sRGB">
      <feGaussianBlur stdDeviation="10"/>
    </filter>
  </defs>

  <rect width="1600" height="900" fill="url(#bg)"/>
  <rect width="1600" height="900" fill="url(#halo)"/>

  <g opacity="0.18">
    <path d="M0 650C220 560 420 600 620 690C820 780 1040 820 1600 720V900H0V650Z" fill="#2563EB"/>
  </g>

  <g opacity="0.12">
    <circle cx="220" cy="210" r="150" fill="#FFFFFF"/>
    <circle cx="1380" cy="260" r="190" fill="#FFFFFF"/>
  </g>

  <g opacity="0.9">
    <path d="M260 620C460 560 650 540 800 540C950 540 1140 560 1340 620L1265 735C1100 700 950 680 800 680C650 680 500 700 335 735L260 620Z" fill="url(#table)"/>
    <path d="M345 735C510 700 655 682 800 682C945 682 1090 700 1255 735" stroke="#FFFFFF" stroke-opacity="0.18" stroke-width="3" stroke-linecap="round"/>
  </g>

  <g opacity="0.9">
    <g fill="#FFFFFF" fill-opacity="0.85" filter="url(#soft)">
      <circle cx="800" cy="470" r="18"/>
      <circle cx="685" cy="490" r="14"/>
      <circle cx="915" cy="490" r="14"/>
      <circle cx="570" cy="510" r="12"/>
      <circle cx="1030" cy="510" r="12"/>
      <circle cx="470" cy="535" r="10"/>
      <circle cx="1130" cy="535" r="10"/>
      <circle cx="380" cy="560" r="9"/>
      <circle cx="1220" cy="560" r="9"/>
      <circle cx="310" cy="585" r="8"/>
      <circle cx="1290" cy="585" r="8"/>
      <circle cx="250" cy="610" r="7"/>
      <circle cx="1350" cy="610" r="7"/>
    </g>
    <g fill="#FFFFFF" fill-opacity="0.7">
      <circle cx="800" cy="470" r="18"/>
      <circle cx="685" cy="490" r="14"/>
      <circle cx="915" cy="490" r="14"/>
      <circle cx="570" cy="510" r="12"/>
      <circle cx="1030" cy="510" r="12"/>
      <circle cx="470" cy="535" r="10"/>
      <circle cx="1130" cy="535" r="10"/>
      <circle cx="380" cy="560" r="9"/>
      <circle cx="1220" cy="560" r="9"/>
      <circle cx="310" cy="585" r="8"/>
      <circle cx="1290" cy="585" r="8"/>
      <circle cx="250" cy="610" r="7"/>
      <circle cx="1350" cy="610" r="7"/>
    </g>
  </g>

  <g opacity="0.9">
    <path d="M560 260H1040" stroke="#FFFFFF" stroke-opacity="0.25" stroke-width="6" stroke-linecap="round"/>
    <path d="M800 200V360" stroke="#059669" stroke-opacity="0.55" stroke-width="6" stroke-linecap="round"/>
  </g>
</svg>

