<svg xmlns="http://www.w3.org/2000/svg" width="1200" height="800" viewBox="0 0 1200 800" fill="none" role="img" aria-label="Ilustração: Sacramento (pão, água e convênio)">
  <defs>
    <linearGradient id="bg" x1="0" y1="0" x2="1200" y2="800" gradientUnits="userSpaceOnUse">
      <stop stop-color="#FFFFFF"/>
      <stop offset="1" stop-color="#F3F4F6"/>
    </linearGradient>
    <linearGradient id="glass" x1="700" y1="250" x2="1020" y2="650" gradientUnits="userSpaceOnUse">
      <stop stop-color="#2563EB" stop-opacity="0.18"/>
      <stop offset="1" stop-color="#1E3A8A" stop-opacity="0.18"/>
    </linearGradient>
    <linearGradient id="bread" x1="180" y1="260" x2="560" y2="620" gradientUnits="userSpaceOnUse">
      <stop stop-color="#FFF7ED"/>
      <stop offset="1" stop-color="#FDE68A"/>
    </linearGradient>
    <radialGradient id="spirit" cx="0" cy="0" r="1" gradientUnits="userSpaceOnUse" gradientTransform="translate(600 260) rotate(90) scale(280 420)">
      <stop stop-color="#059669" stop-opacity="0.18"/>
      <stop offset="1" stop-color="#059669" stop-opacity="0"/>
    </radialGradient>
  </defs>

  <rect width="1200" height="800" fill="url(#bg)"/>
  <rect width="1200" height="800" fill="url(#spirit)"/>

  <g opacity="0.16">
    <circle cx="220" cy="220" r="150" fill="#1E3A8A"/>
    <circle cx="980" cy="250" r="200" fill="#2563EB"/>
  </g>

  <g>
    <path d="M250 350c0-90 72-162 162-162s162 72 162 162v270H250V350Z" fill="url(#bread)" stroke="#1E3A8A" stroke-opacity="0.18" stroke-width="10" stroke-linejoin="round"/>
    <path d="M320 300c10 30 38 50 70 50" stroke="#1E3A8A" stroke-opacity="0.55" stroke-width="10" stroke-linecap="round"/>
    <path d="M460 350c32 0 60-20 70-50" stroke="#1E3A8A" stroke-opacity="0.45" stroke-width="10" stroke-linecap="round"/>
    <path d="M290 620h244" stroke="#059669" stroke-opacity="0.65" stroke-width="10" stroke-linecap="round"/>
  </g>

  <g>
    <path d="M900 210c110 140 170 235 170 320a170 170 0 1 1-340 0c0-85 60-180 170-320Z" fill="url(#glass)" stroke="#2563EB" stroke-opacity="0.28" stroke-width="10" stroke-linejoin="round"/>
    <path d="M820 560c20 30 50 50 80 50" stroke="#2563EB" stroke-opacity="0.55" stroke-width="10" stroke-linecap="round"/>
    <path d="M790 500c-8 80 32 150 110 180" stroke="#059669" stroke-opacity="0.28" stroke-width="10" stroke-linecap="round"/>
  </g>

  <g opacity="0.9">
    <path d="M560 190H640" stroke="#059669" stroke-opacity="0.7" stroke-width="10" stroke-linecap="round"/>
    <path d="M600 150V230" stroke="#059669" stroke-opacity="0.7" stroke-width="10" stroke-linecap="round"/>
  </g>
</svg>

